<svg width="77" height="79" viewBox="0 0 77 79" fill="none" xmlns="http://www.w3.org/2000/svg">
<path d="M74.5 39.5C74.5 59.9954 58.3222 76.5 38.5 76.5C18.6778 76.5 2.5 59.9954 2.5 39.5C2.5 19.0046 18.6778 2.5 38.5 2.5C58.3222 2.5 74.5 19.0046 74.5 39.5Z" fill="black" stroke="#EB5757" stroke-width="5"/>
<path d="M13.26 44V34.004H19.574V35.754H15.374V37.84H16.214C17.1567 37.84 17.9267 37.9707 18.524 38.232C19.1307 38.4933 19.5787 38.8527 19.868 39.31C20.1573 39.7673 20.302 40.29 20.302 40.878C20.302 41.5313 20.1573 42.0913 19.868 42.558C19.5787 43.0247 19.1307 43.384 18.524 43.636C17.9173 43.8787 17.1333 44 16.172 44H13.26ZM16.088 42.264C16.732 42.264 17.236 42.1613 17.6 41.956C17.9733 41.7507 18.16 41.3913 18.16 40.878C18.16 40.5233 18.0667 40.2527 17.88 40.066C17.7027 39.8793 17.446 39.7533 17.11 39.688C16.7833 39.6133 16.3867 39.576 15.92 39.576H15.374V42.264H16.088ZM28.9637 40.164C28.9637 40.7987 28.8751 41.3633 28.6977 41.858C28.5297 42.3527 28.2824 42.7727 27.9557 43.118C27.6384 43.454 27.2511 43.7107 26.7937 43.888C26.3364 44.056 25.8184 44.14 25.2397 44.14C24.7077 44.14 24.2131 44.056 23.7557 43.888C23.3077 43.7107 22.9204 43.454 22.5937 43.118C22.2671 42.7727 22.0104 42.3527 21.8237 41.858C21.6464 41.3633 21.5577 40.7987 21.5577 40.164C21.5577 39.3147 21.7071 38.6007 22.0057 38.022C22.3044 37.434 22.7337 36.986 23.2937 36.678C23.8537 36.37 24.5164 36.216 25.2817 36.216C26.0004 36.216 26.6351 36.37 27.1857 36.678C27.7364 36.986 28.1704 37.434 28.4877 38.022C28.8051 38.6007 28.9637 39.3147 28.9637 40.164ZM23.6857 40.164C23.6857 40.668 23.7371 41.0927 23.8397 41.438C23.9517 41.774 24.1244 42.0307 24.3577 42.208C24.5911 42.376 24.8944 42.46 25.2677 42.46C25.6411 42.46 25.9397 42.376 26.1637 42.208C26.3971 42.0307 26.5651 41.774 26.6677 41.438C26.7797 41.0927 26.8357 40.668 26.8357 40.164C26.8357 39.66 26.7797 39.24 26.6677 38.904C26.5651 38.568 26.3971 38.316 26.1637 38.148C25.9304 37.98 25.6271 37.896 25.2537 37.896C24.7031 37.896 24.3017 38.0873 24.0497 38.47C23.8071 38.8433 23.6857 39.408 23.6857 40.164ZM32.7737 36.356V39.296H35.6857V36.356H37.7717V44H35.6857V40.85H32.7737V44H30.6877V36.356H32.7737ZM38.8652 36.356H41.1472L42.5892 40.654C42.6359 40.794 42.6732 40.934 42.7012 41.074C42.7386 41.214 42.7666 41.3587 42.7852 41.508C42.8132 41.6573 42.8319 41.816 42.8412 41.984H42.8832C42.9112 41.7413 42.9486 41.5127 42.9952 41.298C43.0512 41.074 43.1119 40.8593 43.1772 40.654L44.5912 36.356H46.8312L43.5972 44.98C43.4012 45.5027 43.1446 45.9413 42.8272 46.296C42.5192 46.6507 42.1599 46.9167 41.7492 47.094C41.3386 47.2713 40.8906 47.36 40.4052 47.36C40.1719 47.36 39.9666 47.346 39.7892 47.318C39.6212 47.2993 39.4719 47.276 39.3412 47.248V45.596C39.4439 45.6147 39.5652 45.6333 39.7052 45.652C39.8546 45.6707 40.0086 45.68 40.1672 45.68C40.4566 45.68 40.7039 45.6193 40.9092 45.498C41.1239 45.3767 41.3012 45.2087 41.4412 44.994C41.5812 44.7887 41.6932 44.5647 41.7772 44.322L41.9032 43.944L38.8652 36.356ZM51.0359 44.14C50.2799 44.14 49.6359 44.0047 49.1039 43.734C48.5719 43.454 48.1659 43.0247 47.8859 42.446C47.6059 41.8673 47.4659 41.1253 47.4659 40.22C47.4659 39.2867 47.6246 38.526 47.9419 37.938C48.2593 37.35 48.6979 36.916 49.2579 36.636C49.8273 36.356 50.4806 36.216 51.2179 36.216C51.7406 36.216 52.1933 36.2673 52.5759 36.37C52.9679 36.4727 53.3086 36.594 53.5979 36.734L52.9819 38.344C52.6553 38.2133 52.3473 38.106 52.0579 38.022C51.7779 37.938 51.4979 37.896 51.2179 37.896C50.8539 37.896 50.5506 37.9847 50.3079 38.162C50.0653 38.33 49.8833 38.5867 49.7619 38.932C49.6499 39.268 49.5939 39.6927 49.5939 40.206C49.5939 40.71 49.6546 41.13 49.7759 41.466C49.9066 41.7927 50.0933 42.04 50.3359 42.208C50.5786 42.3667 50.8726 42.446 51.2179 42.446C51.6566 42.446 52.0439 42.39 52.3799 42.278C52.7159 42.1567 53.0426 41.9933 53.3599 41.788V43.566C53.0426 43.7713 52.7066 43.916 52.3519 44C52.0066 44.0933 51.5679 44.14 51.0359 44.14ZM55.1193 44V36.356H57.2053V39.31H58.2133C58.9973 39.31 59.6413 39.394 60.1453 39.562C60.6493 39.7207 61.0227 39.968 61.2653 40.304C61.5173 40.64 61.6433 41.06 61.6433 41.564C61.6433 42.0587 61.5267 42.488 61.2933 42.852C61.0693 43.216 60.71 43.5007 60.2153 43.706C59.73 43.902 59.086 44 58.2833 44H55.1193ZM58.1713 42.558C58.582 42.558 58.9133 42.4833 59.1653 42.334C59.4267 42.1847 59.5573 41.9373 59.5573 41.592C59.5573 41.2933 59.436 41.0787 59.1933 40.948C58.96 40.8173 58.61 40.752 58.1433 40.752H57.2053V42.558H58.1713ZM62.7493 44V36.356H64.8353V44H62.7493Z" fill="white"/>
</svg>
