<svg width="25" height="26" viewBox="0 0 25 26" fill="none" xmlns="http://www.w3.org/2000/svg">
<path fill-rule="evenodd" clip-rule="evenodd" d="M12.5 4.40625C7.7538 4.40625 3.90625 8.2538 3.90625 13C3.90625 17.7462 7.7538 21.5938 12.5 21.5938C17.2462 21.5938 21.0938 17.7462 21.0938 13C21.0938 8.2538 17.2462 4.40625 12.5 4.40625ZM2.34375 13C2.34375 7.39086 6.89086 2.84375 12.5 2.84375C18.1091 2.84375 22.6562 7.39086 22.6562 13C22.6562 18.6091 18.1091 23.1562 12.5 23.1562C6.89086 23.1562 2.34375 18.6091 2.34375 13Z" fill="#4282E1"/>
<path fill-rule="evenodd" clip-rule="evenodd" d="M12.5 6.75C12.9315 6.75 13.2812 7.09978 13.2812 7.53125V12.2188H17.9688C18.4002 12.2188 18.75 12.5685 18.75 13C18.75 13.4315 18.4002 13.7812 17.9688 13.7812H12.5C12.0685 13.7812 11.7188 13.4315 11.7188 13V7.53125C11.7188 7.09978 12.0685 6.75 12.5 6.75Z" fill="#4282E1"/>
</svg>
