<svg width="20" height="21" viewBox="0 0 20 21" fill="none" xmlns="http://www.w3.org/2000/svg">
<path d="M2.5 5.40216H4.16667H17.5" stroke="#EB5757" stroke-width="1.25" stroke-linecap="round" stroke-linejoin="round"/>
<path d="M6.66699 5.40218V3.73551C6.66699 3.29349 6.84259 2.86956 7.15515 2.557C7.46771 2.24444 7.89163 2.06885 8.33366 2.06885H11.667C12.109 2.06885 12.5329 2.24444 12.8455 2.557C13.1581 2.86956 13.3337 3.29349 13.3337 3.73551V5.40218M15.8337 5.40218V17.0688C15.8337 17.5109 15.6581 17.9348 15.3455 18.2474C15.0329 18.5599 14.609 18.7355 14.167 18.7355H5.83366C5.39163 18.7355 4.96771 18.5599 4.65515 18.2474C4.34259 17.9348 4.16699 17.5109 4.16699 17.0688V5.40218H15.8337Z" stroke="#EB5757" stroke-width="1.25" stroke-linecap="round" stroke-linejoin="round"/>
<path d="M11.667 9.56885V14.5688" stroke="#EB5757" stroke-width="1.25" stroke-linecap="round" stroke-linejoin="round"/>
<path d="M8.33301 9.56885V14.5688" stroke="#EB5757" stroke-width="1.25" stroke-linecap="round" stroke-linejoin="round"/>
</svg>
