<svg width="20" height="21" viewBox="0 0 20 21" fill="none" xmlns="http://www.w3.org/2000/svg">
<path d="M19.167 17.9022V16.2355C19.1664 15.4969 18.9206 14.7795 18.4681 14.1958C18.0156 13.612 17.3821 13.1951 16.667 13.0105" fill="#4282E1"/>
<path d="M19.167 17.9022V16.2355C19.1664 15.4969 18.9206 14.7795 18.4681 14.1958C18.0156 13.612 17.3821 13.1951 16.667 13.0105" stroke="#4282E1" stroke-width="1.25" stroke-linecap="round" stroke-linejoin="round"/>
<path d="M14.1663 17.9022V16.2355C14.1663 15.3514 13.8152 14.5036 13.19 13.8785C12.5649 13.2534 11.7171 12.9022 10.833 12.9022H4.16634C3.28229 12.9022 2.43444 13.2534 1.80932 13.8785C1.1842 14.5036 0.833008 15.3514 0.833008 16.2355V17.9022" stroke="#4282E1" stroke-width="1.25" stroke-linecap="round" stroke-linejoin="round"/>
<path d="M13.333 3.0105C14.05 3.19408 14.6855 3.61108 15.1394 4.19576C15.5932 4.78043 15.8395 5.49952 15.8395 6.23967C15.8395 6.97981 15.5932 7.6989 15.1394 8.28357C14.6855 8.86825 14.05 9.28525 13.333 9.46883" stroke="#4282E1" stroke-width="1.25" stroke-linecap="round" stroke-linejoin="round"/>
<path d="M7.50033 9.56883C9.34128 9.56883 10.8337 8.07644 10.8337 6.23549C10.8337 4.39454 9.34128 2.90216 7.50033 2.90216C5.65938 2.90216 4.16699 4.39454 4.16699 6.23549C4.16699 8.07644 5.65938 9.56883 7.50033 9.56883Z" stroke="#4282E1" stroke-width="1.25" stroke-linecap="round" stroke-linejoin="round"/>
</svg>
