<svg width="20" height="21" viewBox="0 0 20 21" fill="none" xmlns="http://www.w3.org/2000/svg">
<path fill-rule="evenodd" clip-rule="evenodd" d="M10.0544 2.27713C11.1254 2.26885 12.1875 2.4724 13.1796 2.8761C14.1732 3.28042 15.0769 3.87749 15.8385 4.63285C16.6002 5.38822 17.2048 6.28694 17.6173 7.27715C18.0298 8.26735 18.2422 9.32944 18.2422 10.4021C18.2422 10.4022 18.2422 10.4022 18.2422 10.4022V14.7771C18.2422 15.2744 18.0446 15.7513 17.693 16.103C17.3414 16.4546 16.8645 16.6521 16.3672 16.6521H15.1172C14.6199 16.6521 14.143 16.4546 13.7914 16.103C13.4397 15.7513 13.2422 15.2744 13.2422 14.7771V11.6521C13.2422 11.1549 13.4397 10.678 13.7914 10.3263C14.143 9.97469 14.6199 9.77715 15.1172 9.77715H16.9637C16.9005 9.08378 16.7321 8.40281 16.4634 7.75788C16.1144 6.92001 15.6028 6.15955 14.9583 5.5204C14.3139 4.88124 13.5492 4.37603 12.7084 4.03392C11.8677 3.6918 10.9675 3.51956 10.0599 3.52712L10.0501 3.52713C9.14308 3.52052 8.24369 3.69346 7.40378 4.036C6.56388 4.37854 5.80005 4.8839 5.15633 5.52296C4.51261 6.16202 4.00171 6.92215 3.65308 7.75955C3.38479 8.40399 3.21667 9.08438 3.15345 9.77715H5C5.49728 9.77715 5.97419 9.97469 6.32582 10.3263C6.67746 10.678 6.875 11.1549 6.875 11.6521V14.7771C6.875 15.2744 6.67746 15.7513 6.32582 16.103C5.97419 16.4546 5.49728 16.6521 5 16.6521H3.75C3.25272 16.6521 2.77581 16.4546 2.42417 16.103C2.07254 15.7513 1.875 15.2744 1.875 14.7771V10.4022C1.87497 9.33017 2.08708 8.26877 2.4991 7.27911C2.91112 6.28946 3.5149 5.39113 4.27567 4.63587C5.03643 3.88062 5.93913 3.28337 6.93175 2.87855C7.92286 2.47435 8.98405 2.26997 10.0544 2.27713ZM3.125 11.0271V14.7771C3.125 14.9429 3.19085 15.1019 3.30806 15.2191C3.42527 15.3363 3.58424 15.4021 3.75 15.4021H5C5.16576 15.4021 5.32473 15.3363 5.44194 15.2191C5.55915 15.1019 5.625 14.9429 5.625 14.7771V11.6521C5.625 11.4864 5.55915 11.3274 5.44194 11.2102C5.32473 11.093 5.16576 11.0271 5 11.0271H3.125ZM16.9922 11.0271H15.1172C14.9514 11.0271 14.7925 11.093 14.6752 11.2102C14.558 11.3274 14.4922 11.4864 14.4922 11.6521V14.7771C14.4922 14.9429 14.558 15.1019 14.6752 15.2191C14.7925 15.3363 14.9514 15.4021 15.1172 15.4021H16.3672C16.5329 15.4021 16.6919 15.3363 16.8091 15.2191C16.9263 15.1019 16.9922 14.9429 16.9922 14.7771V11.0271Z" fill="#4282E1"/>
<path fill-rule="evenodd" clip-rule="evenodd" d="M17.6172 14.1522C17.9624 14.1522 18.2422 14.432 18.2422 14.7772V16.6522C18.2422 17.481 17.9129 18.2758 17.3269 18.8619C16.7408 19.4479 15.946 19.7772 15.1172 19.7772H10.625C10.2798 19.7772 10 19.4973 10 19.1522C10 18.807 10.2798 18.5272 10.625 18.5272H15.1172C15.6145 18.5272 16.0914 18.3296 16.443 17.978C16.7946 17.6264 16.9922 17.1494 16.9922 16.6522V14.7772C16.9922 14.432 17.272 14.1522 17.6172 14.1522Z" fill="#4282E1"/>
</svg>
