<svg width="121" height="30" viewBox="0 0 121 30" fill="none" xmlns="http://www.w3.org/2000/svg">
<path fill-rule="evenodd" clip-rule="evenodd" d="M6.96027 9.31298C6.60497 8.99593 6.14216 8.82583 5.66576 8.83756C5.1846 8.84941 4.72642 9.04583 4.38609 9.38617C4.04575 9.7265 3.84933 10.1847 3.83748 10.6658C3.82575 11.1422 3.99586 11.605 4.3129 11.9603L13.0396 20.687C13.3949 21.0041 13.8577 21.1742 14.3341 21.1624C14.8152 21.1506 15.2734 20.9542 15.6137 20.6138C15.9541 20.2735 16.1505 19.8153 16.1624 19.3341C16.1741 18.8578 16.004 18.3949 15.6869 18.0397L6.96027 9.31298ZM5.635 7.58794C6.43693 7.56819 7.21575 7.85759 7.8102 8.39621C7.8178 8.4031 7.82523 8.41018 7.83249 8.41743L16.5825 17.1674C16.5897 17.1747 16.5968 17.1821 16.6037 17.1897C17.1423 17.7842 17.4317 18.563 17.412 19.3649C17.3922 20.1669 17.0649 20.9305 16.4976 21.4977C15.9304 22.0649 15.1668 22.3923 14.3648 22.4121C13.5629 22.4318 12.7841 22.1424 12.1896 21.6038C12.182 21.5969 12.1746 21.5898 12.1674 21.5826L3.41735 12.8326C3.4101 12.8253 3.40303 12.8179 3.39614 12.8103C2.85752 12.2158 2.56812 11.437 2.58786 10.6351C2.60761 9.83314 2.93498 9.06951 3.50221 8.50228C4.06943 7.93506 4.83306 7.60768 5.635 7.58794Z" fill="#4282E1"/>
<path fill-rule="evenodd" clip-rule="evenodd" d="M13.0396 9.31298L4.3129 18.0396C3.99586 18.3949 3.82575 18.8577 3.83748 19.3341C3.84933 19.8153 4.04575 20.2735 4.38609 20.6138C4.72642 20.9542 5.1846 21.1506 5.66576 21.1624C6.14216 21.1742 6.60496 21.0041 6.96026 20.687L15.6869 11.9603C16.004 11.605 16.1741 11.1422 16.1624 10.6658C16.1505 10.1847 15.9541 9.7265 15.6137 9.38617C15.2734 9.04583 14.8152 8.84941 14.3341 8.83756C13.8577 8.82583 13.3949 8.99593 13.0396 9.31298ZM12.1896 8.39621C12.7841 7.85759 13.5629 7.56819 14.3648 7.58794C15.1668 7.60768 15.9304 7.93506 16.4976 8.50228C17.0649 9.06951 17.3922 9.83314 17.412 10.6351C17.4317 11.437 17.1423 12.2158 16.6037 12.8103C16.5968 12.8179 16.5897 12.8253 16.5825 12.8326L7.83249 21.5826C7.82523 21.5898 7.8178 21.5969 7.8102 21.6038C7.21575 22.1424 6.43693 22.4318 5.635 22.4121C4.83306 22.3923 4.06943 22.0649 3.50221 21.4977C2.93498 20.9305 2.60761 20.1669 2.58786 19.3649C2.56812 18.563 2.85752 17.7842 3.39614 17.1897C3.40303 17.1821 3.4101 17.1747 3.41735 17.1674L12.1674 8.41743C12.1746 8.41018 12.182 8.4031 12.1896 8.39621Z" fill="#4282E1"/>
<path opacity="0.5" fill-rule="evenodd" clip-rule="evenodd" d="M10 15.3125C10.1726 15.3125 10.3125 15.1726 10.3125 15C10.3125 14.8274 10.1726 14.6875 10 14.6875C9.82741 14.6875 9.6875 14.8274 9.6875 15C9.6875 15.1726 9.82741 15.3125 10 15.3125ZM9.0625 15C9.0625 14.4822 9.48223 14.0625 10 14.0625C10.5178 14.0625 10.9375 14.4822 10.9375 15C10.9375 15.5178 10.5178 15.9375 10 15.9375C9.48223 15.9375 9.0625 15.5178 9.0625 15Z" fill="#4282E1"/>
<path d="M10 15.9375C10.5178 15.9375 10.9375 15.5178 10.9375 15C10.9375 14.4822 10.5178 14.0625 10 14.0625C9.48223 14.0625 9.0625 14.4822 9.0625 15C9.0625 15.5178 9.48223 15.9375 10 15.9375Z" fill="#4282E1"/>
<path d="M29.18 19.78H33.78V22H26.38V8.04H29.18V19.78ZM40.6797 22.18C39.613 22.18 38.653 21.9467 37.7997 21.48C36.9464 21 36.273 20.3267 35.7797 19.46C35.2997 18.5933 35.0597 17.5933 35.0597 16.46C35.0597 15.3267 35.3064 14.3267 35.7997 13.46C36.3064 12.5933 36.993 11.9267 37.8597 11.46C38.7264 10.98 39.693 10.74 40.7597 10.74C41.8264 10.74 42.793 10.98 43.6597 11.46C44.5264 11.9267 45.2064 12.5933 45.6997 13.46C46.2064 14.3267 46.4597 15.3267 46.4597 16.46C46.4597 17.5933 46.1997 18.5933 45.6797 19.46C45.173 20.3267 44.4797 21 43.5997 21.48C42.733 21.9467 41.7597 22.18 40.6797 22.18ZM40.6797 19.74C41.1864 19.74 41.6597 19.62 42.0997 19.38C42.553 19.1267 42.913 18.7533 43.1797 18.26C43.4464 17.7667 43.5797 17.1667 43.5797 16.46C43.5797 15.4067 43.2997 14.6 42.7397 14.04C42.193 13.4667 41.5197 13.18 40.7197 13.18C39.9197 13.18 39.2464 13.4667 38.6997 14.04C38.1664 14.6 37.8997 15.4067 37.8997 16.46C37.8997 17.5133 38.1597 18.3267 38.6797 18.9C39.213 19.46 39.8797 19.74 40.6797 19.74ZM53.0536 10.74C53.8803 10.74 54.6069 10.9067 55.2336 11.24C55.8603 11.56 56.3536 11.98 56.7136 12.5V10.92H59.5336V22.08C59.5336 23.1067 59.3269 24.02 58.9136 24.82C58.5003 25.6333 57.8803 26.2733 57.0536 26.74C56.2269 27.22 55.2269 27.46 54.0536 27.46C52.4803 27.46 51.1869 27.0933 50.1736 26.36C49.1736 25.6267 48.6069 24.6267 48.4736 23.36H51.2536C51.4003 23.8667 51.7136 24.2667 52.1936 24.56C52.6869 24.8667 53.2803 25.02 53.9736 25.02C54.7869 25.02 55.4469 24.7733 55.9536 24.28C56.4603 23.8 56.7136 23.0667 56.7136 22.08V20.36C56.3536 20.88 55.8536 21.3133 55.2136 21.66C54.5869 22.0067 53.8669 22.18 53.0536 22.18C52.1203 22.18 51.2669 21.94 50.4936 21.46C49.7203 20.98 49.1069 20.3067 48.6536 19.44C48.2136 18.56 47.9936 17.5533 47.9936 16.42C47.9936 15.3 48.2136 14.3067 48.6536 13.44C49.1069 12.5733 49.7136 11.9067 50.4736 11.44C51.2469 10.9733 52.1069 10.74 53.0536 10.74ZM56.7136 16.46C56.7136 15.78 56.5803 15.2 56.3136 14.72C56.0469 14.2267 55.6869 13.8533 55.2336 13.6C54.7803 13.3333 54.2936 13.2 53.7736 13.2C53.2536 13.2 52.7736 13.3267 52.3336 13.58C51.8936 13.8333 51.5336 14.2067 51.2536 14.7C50.9869 15.18 50.8536 15.7533 50.8536 16.42C50.8536 17.0867 50.9869 17.6733 51.2536 18.18C51.5336 18.6733 51.8936 19.0533 52.3336 19.32C52.7869 19.5867 53.2669 19.72 53.7736 19.72C54.2936 19.72 54.7803 19.5933 55.2336 19.34C55.6869 19.0733 56.0469 18.7 56.3136 18.22C56.5803 17.7267 56.7136 17.14 56.7136 16.46ZM67.3883 22.18C66.3216 22.18 65.3616 21.9467 64.5083 21.48C63.6549 21 62.9816 20.3267 62.4883 19.46C62.0083 18.5933 61.7683 17.5933 61.7683 16.46C61.7683 15.3267 62.0149 14.3267 62.5083 13.46C63.0149 12.5933 63.7016 11.9267 64.5683 11.46C65.4349 10.98 66.4016 10.74 67.4683 10.74C68.5349 10.74 69.5016 10.98 70.3683 11.46C71.2349 11.9267 71.9149 12.5933 72.4083 13.46C72.9149 14.3267 73.1683 15.3267 73.1683 16.46C73.1683 17.5933 72.9083 18.5933 72.3883 19.46C71.8816 20.3267 71.1883 21 70.3083 21.48C69.4416 21.9467 68.4683 22.18 67.3883 22.18ZM67.3883 19.74C67.8949 19.74 68.3683 19.62 68.8083 19.38C69.2616 19.1267 69.6216 18.7533 69.8883 18.26C70.1549 17.7667 70.2883 17.1667 70.2883 16.46C70.2883 15.4067 70.0083 14.6 69.4483 14.04C68.9016 13.4667 68.2283 13.18 67.4283 13.18C66.6283 13.18 65.9549 13.4667 65.4083 14.04C64.8749 14.6 64.6083 15.4067 64.6083 16.46C64.6083 17.5133 64.8683 18.3267 65.3883 18.9C65.9216 19.46 66.5883 19.74 67.3883 19.74ZM78.6822 13.22V18.58C78.6822 18.9533 78.7689 19.2267 78.9422 19.4C79.1289 19.56 79.4355 19.64 79.8622 19.64H81.1622V22H79.4022C77.0422 22 75.8622 20.8533 75.8622 18.56V13.22H74.5422V10.92H75.8622V8.18H78.6822V10.92H81.1622V13.22H78.6822ZM93.9761 10.92L87.1161 27.24H84.1361L86.5361 21.72L82.0961 10.92H85.2361L88.0961 18.66L90.9961 10.92H93.9761ZM98.4855 12.52C98.8455 12.0133 99.3388 11.5933 99.9655 11.26C100.605 10.9133 101.332 10.74 102.145 10.74C103.092 10.74 103.945 10.9733 104.705 11.44C105.479 11.9067 106.085 12.5733 106.525 13.44C106.979 14.2933 107.205 15.2867 107.205 16.42C107.205 17.5533 106.979 18.56 106.525 19.44C106.085 20.3067 105.479 20.98 104.705 21.46C103.945 21.94 103.092 22.18 102.145 22.18C101.332 22.18 100.612 22.0133 99.9855 21.68C99.3721 21.3467 98.8721 20.9267 98.4855 20.42V27.28H95.6855V10.92H98.4855V12.52ZM104.345 16.42C104.345 15.7533 104.205 15.18 103.925 14.7C103.659 14.2067 103.299 13.8333 102.845 13.58C102.405 13.3267 101.925 13.2 101.405 13.2C100.899 13.2 100.419 13.3333 99.9655 13.6C99.5255 13.8533 99.1655 14.2267 98.8855 14.72C98.6188 15.2133 98.4855 15.7933 98.4855 16.46C98.4855 17.1267 98.6188 17.7067 98.8855 18.2C99.1655 18.6933 99.5255 19.0733 99.9655 19.34C100.419 19.5933 100.899 19.72 101.405 19.72C101.925 19.72 102.405 19.5867 102.845 19.32C103.299 19.0533 103.659 18.6733 103.925 18.18C104.205 17.6867 104.345 17.1 104.345 16.42ZM119.74 16.22C119.74 16.62 119.713 16.98 119.66 17.3H111.56C111.627 18.1 111.907 18.7267 112.4 19.18C112.893 19.6333 113.5 19.86 114.22 19.86C115.26 19.86 116 19.4133 116.44 18.52H119.46C119.14 19.5867 118.527 20.4667 117.62 21.16C116.713 21.84 115.6 22.18 114.28 22.18C113.213 22.18 112.253 21.9467 111.4 21.48C110.56 21 109.9 20.3267 109.42 19.46C108.953 18.5933 108.72 17.5933 108.72 16.46C108.72 15.3133 108.953 14.3067 109.42 13.44C109.887 12.5733 110.54 11.9067 111.38 11.44C112.22 10.9733 113.187 10.74 114.28 10.74C115.333 10.74 116.273 10.9667 117.1 11.42C117.94 11.8733 118.587 12.52 119.04 13.36C119.507 14.1867 119.74 15.14 119.74 16.22ZM116.84 15.42C116.827 14.7 116.567 14.1267 116.06 13.7C115.553 13.26 114.933 13.04 114.2 13.04C113.507 13.04 112.92 13.2533 112.44 13.68C111.973 14.0933 111.687 14.6733 111.58 15.42H116.84Z" fill="#4282E1"/>
</svg>
