<svg width="18" height="19" viewBox="0 0 18 19" fill="none" xmlns="http://www.w3.org/2000/svg">
<g clip-path="url(#clip0_122_6146)">
<path d="M9 11.6521C10.2426 11.6521 11.25 10.6447 11.25 9.4021C11.25 8.15946 10.2426 7.1521 9 7.1521C7.75736 7.1521 6.75 8.15946 6.75 9.4021C6.75 10.6447 7.75736 11.6521 9 11.6521Z" stroke="#4282E1" stroke-width="1.5" stroke-linecap="round" stroke-linejoin="round"/>
<path d="M14.55 11.6521C14.4502 11.8783 14.4204 12.1292 14.4645 12.3725C14.5086 12.6158 14.6246 12.8403 14.7975 13.0171L14.8425 13.0621C14.982 13.2014 15.0926 13.3668 15.1681 13.5489C15.2436 13.731 15.2824 13.9262 15.2824 14.1233C15.2824 14.3205 15.2436 14.5157 15.1681 14.6978C15.0926 14.8799 14.982 15.0453 14.8425 15.1846C14.7032 15.3241 14.5378 15.4347 14.3557 15.5102C14.1736 15.5857 13.9784 15.6245 13.7812 15.6245C13.5841 15.6245 13.3889 15.5857 13.2068 15.5102C13.0247 15.4347 12.8593 15.3241 12.72 15.1846L12.675 15.1396C12.4982 14.9667 12.2737 14.8507 12.0304 14.8066C11.7871 14.7625 11.5362 14.7923 11.31 14.8921C11.0882 14.9872 10.899 15.145 10.7657 15.3463C10.6325 15.5475 10.561 15.7833 10.56 16.0246V16.1521C10.56 16.5499 10.402 16.9315 10.1207 17.2128C9.83936 17.4941 9.45782 17.6521 9.06 17.6521C8.66218 17.6521 8.28064 17.4941 7.99934 17.2128C7.71804 16.9315 7.56 16.5499 7.56 16.1521V16.0846C7.55419 15.8364 7.47384 15.5956 7.32938 15.3936C7.18493 15.1917 6.98305 15.0378 6.75 14.9521C6.52379 14.8523 6.27286 14.8225 6.02956 14.8666C5.78626 14.9107 5.56176 15.0267 5.385 15.1996L5.34 15.2446C5.20069 15.3841 5.03526 15.4947 4.85316 15.5702C4.67106 15.6457 4.47587 15.6845 4.27875 15.6845C4.08163 15.6845 3.88644 15.6457 3.70434 15.5702C3.52224 15.4947 3.35681 15.3841 3.2175 15.2446C3.07804 15.1053 2.9674 14.9399 2.89191 14.7578C2.81642 14.5757 2.77757 14.3805 2.77757 14.1833C2.77757 13.9862 2.81642 13.791 2.89191 13.6089C2.9674 13.4268 3.07804 13.2614 3.2175 13.1221L3.2625 13.0771C3.4354 12.9003 3.55139 12.6758 3.5955 12.4325C3.63962 12.1892 3.60984 11.9383 3.51 11.7121C3.41493 11.4903 3.25707 11.3011 3.05585 11.1678C2.85463 11.0346 2.61884 10.9631 2.3775 10.9621H2.25C1.85218 10.9621 1.47064 10.8041 1.18934 10.5228C0.908035 10.2415 0.75 9.85992 0.75 9.4621C0.75 9.06427 0.908035 8.68274 1.18934 8.40144C1.47064 8.12014 1.85218 7.9621 2.25 7.9621H2.3175C2.56575 7.95629 2.8065 7.87594 3.00847 7.73148C3.21045 7.58703 3.36429 7.38515 3.45 7.1521C3.54984 6.92589 3.57962 6.67495 3.5355 6.43166C3.49139 6.18836 3.3754 5.96386 3.2025 5.7871L3.1575 5.7421C3.01804 5.60279 2.9074 5.43736 2.83191 5.25526C2.75642 5.07316 2.71757 4.87797 2.71757 4.68085C2.71757 4.48373 2.75642 4.28854 2.83191 4.10644C2.9074 3.92434 3.01804 3.75891 3.1575 3.6196C3.29681 3.48013 3.46224 3.3695 3.64434 3.29401C3.82644 3.21852 4.02163 3.17967 4.21875 3.17967C4.41587 3.17967 4.61106 3.21852 4.79316 3.29401C4.97526 3.3695 5.14069 3.48013 5.28 3.6196L5.325 3.6646C5.50176 3.8375 5.72626 3.95349 5.96956 3.9976C6.21285 4.04172 6.46379 4.01194 6.69 3.9121H6.75C6.97183 3.81703 7.16101 3.65917 7.29427 3.45795C7.42753 3.25673 7.49904 3.02094 7.5 2.7796V2.6521C7.5 2.25427 7.65804 1.87274 7.93934 1.59144C8.22064 1.31013 8.60218 1.1521 9 1.1521C9.39782 1.1521 9.77936 1.31013 10.0607 1.59144C10.342 1.87274 10.5 2.25427 10.5 2.6521V2.7196C10.501 2.96094 10.5725 3.19673 10.7057 3.39795C10.839 3.59917 11.0282 3.75703 11.25 3.8521C11.4762 3.95194 11.7271 3.98172 11.9704 3.9376C12.2137 3.89349 12.4382 3.7775 12.615 3.6046L12.66 3.5596C12.7993 3.42013 12.9647 3.3095 13.1468 3.23401C13.3289 3.15852 13.5241 3.11967 13.7213 3.11967C13.9184 3.11967 14.1136 3.15852 14.2957 3.23401C14.4778 3.3095 14.6432 3.42013 14.7825 3.5596C14.922 3.69891 15.0326 3.86434 15.1081 4.04644C15.1836 4.22854 15.2224 4.42373 15.2224 4.62085C15.2224 4.81797 15.1836 5.01316 15.1081 5.19526C15.0326 5.37736 14.922 5.54279 14.7825 5.6821L14.7375 5.7271C14.5646 5.90386 14.4486 6.12836 14.4045 6.37166C14.3604 6.61495 14.3902 6.86589 14.49 7.0921V7.1521C14.5851 7.37393 14.7429 7.56311 14.9442 7.69637C15.1454 7.82963 15.3812 7.90114 15.6225 7.9021H15.75C16.1478 7.9021 16.5294 8.06014 16.8107 8.34144C17.092 8.62274 17.25 9.00427 17.25 9.4021C17.25 9.79992 17.092 10.1815 16.8107 10.4628C16.5294 10.7441 16.1478 10.9021 15.75 10.9021H15.6825C15.4412 10.9031 15.2054 10.9746 15.0042 11.1078C14.8029 11.2411 14.6451 11.4303 14.55 11.6521V11.6521Z" stroke="#4282E1" stroke-width="1.5" stroke-linecap="round" stroke-linejoin="round"/>
</g>
<defs>
<clipPath id="clip0_122_6146">
<rect width="18" height="18" fill="white" transform="translate(0 0.4021)"/>
</clipPath>
</defs>
</svg>
