<svg width="63" height="99" viewBox="0 0 63 99" fill="none" xmlns="http://www.w3.org/2000/svg">
<rect width="63" height="98.9022" rx="9.58696" fill="#4282E1" fill-opacity="0.15"/>
<path d="M28.761 13.2227C30.456 12.2441 32.5443 12.2441 34.2393 13.2227L46.8487 20.5028C48.5437 21.4814 49.5878 23.2899 49.5878 25.2471V39.8072C49.5878 41.7644 48.5437 43.5729 46.8487 44.5515L34.2393 51.8316C32.5443 52.8102 30.456 52.8102 28.761 51.8316L16.1516 44.5515C14.4566 43.5729 13.4124 41.7644 13.4124 39.8072V25.2471C13.4124 23.2899 14.4566 21.4814 16.1516 20.5028L28.761 13.2227Z" fill="#4282E1"/>
<path fill-rule="evenodd" clip-rule="evenodd" d="M32.123 25.8315C32.2957 25.7394 32.5031 25.7394 32.6759 25.8315L41.4878 30.5312C41.6793 30.6333 41.7988 30.8326 41.7988 31.0496C41.7988 31.2665 41.6793 31.4658 41.4878 31.5679L32.6759 36.2676C32.5031 36.3598 32.2957 36.3598 32.123 36.2676L23.311 31.5679C23.1196 31.4658 23 31.2665 23 31.0496C23 30.8326 23.1196 30.6333 23.311 30.5312L32.123 25.8315ZM24.8358 31.0496L32.3994 35.0835L39.963 31.0496L32.3994 27.0156L24.8358 31.0496Z" fill="white"/>
<path fill-rule="evenodd" clip-rule="evenodd" d="M31.8808 30.7731C32.0334 30.4868 32.3893 30.3785 32.6756 30.5312L37.0815 32.8811C37.273 32.9832 37.3925 33.1825 37.3925 33.3994V41.6239C37.3925 41.9483 37.1295 42.2114 36.8051 42.2114C36.4806 42.2114 36.2176 41.9483 36.2176 41.6239V33.7519L32.1226 31.5679C31.8364 31.4152 31.7281 31.0594 31.8808 30.7731Z" fill="white"/>
<path fill-rule="evenodd" clip-rule="evenodd" d="M25.6431 31.5562C25.9676 31.5562 26.2306 31.8193 26.2306 32.1437V36.1458L26.2319 36.1475L26.2318 36.1475C26.6675 36.7327 28.5992 38.9803 32.399 38.9803C36.1987 38.9803 38.1304 36.7327 38.5661 36.1475L38.5673 36.1458V32.1437C38.5673 31.8193 38.8303 31.5562 39.1548 31.5562C39.4792 31.5562 39.7423 31.8193 39.7423 32.1437V36.1531L39.7422 36.1556C39.7412 36.407 39.6585 36.6512 39.5067 36.8515C38.9552 37.5914 36.7161 40.1552 32.399 40.1552C28.0818 40.1552 25.8427 37.5913 25.2912 36.8515C25.1394 36.6512 25.0567 36.407 25.0557 36.1556L25.0557 36.1531H25.0557V32.1437C25.0557 31.8193 25.3187 31.5562 25.6431 31.5562Z" fill="white"/>
<path d="M21.04 73.2609L20.008 70.6089H16.612L15.592 73.2609H14.5L17.848 64.6569H18.82L22.156 73.2609H21.04ZM18.724 67.0569C18.7 66.9929 18.66 66.8769 18.604 66.7089C18.548 66.5409 18.492 66.3689 18.436 66.1929C18.388 66.0089 18.348 65.8689 18.316 65.7729C18.276 65.9329 18.232 66.0969 18.184 66.2649C18.144 66.4249 18.1 66.5729 18.052 66.7089C18.012 66.8449 17.976 66.9609 17.944 67.0569L16.972 69.6489H19.684L18.724 67.0569ZM22.0561 66.8289H23.1841L24.5761 70.4889C24.6561 70.7049 24.7281 70.9129 24.7921 71.1129C24.8641 71.3129 24.9281 71.5089 24.9841 71.7009C25.0401 71.8849 25.0841 72.0649 25.1161 72.2409H25.1641C25.2121 72.0409 25.2881 71.7809 25.3921 71.4609C25.4961 71.1329 25.6041 70.8049 25.7161 70.4769L27.0241 66.8289H28.1641L25.3921 74.1489C25.2401 74.5489 25.0601 74.8969 24.8521 75.1929C24.6521 75.4969 24.4041 75.7289 24.1081 75.8889C23.8201 76.0569 23.4681 76.1409 23.0521 76.1409C22.8601 76.1409 22.6921 76.1289 22.5481 76.1049C22.4041 76.0889 22.2801 76.0689 22.1761 76.0449V75.2049C22.2641 75.2209 22.3681 75.2369 22.4881 75.2529C22.6161 75.2689 22.7481 75.2769 22.8841 75.2769C23.1321 75.2769 23.3441 75.2289 23.5201 75.1329C23.7041 75.0449 23.8601 74.9129 23.9881 74.7369C24.1161 74.5689 24.2241 74.3689 24.3121 74.1369L24.6481 73.2849L22.0561 66.8289ZM33.6029 66.8289V72.3729H34.5389V75.4929H33.5189V73.2609H29.0429V75.4929H28.0349V72.3729H28.5509C28.9189 71.8609 29.2229 71.3049 29.4629 70.7049C29.7109 70.0969 29.8949 69.4649 30.0149 68.8089C30.1429 68.1449 30.2109 67.4849 30.2189 66.8289H33.6029ZM31.1549 67.6569C31.1229 68.2009 31.0389 68.7649 30.9029 69.3489C30.7669 69.9249 30.5909 70.4769 30.3749 71.0049C30.1669 71.5329 29.9229 71.9889 29.6429 72.3729H32.5829V67.6569H31.1549ZM36.6755 70.7529C36.6755 70.8249 36.6715 70.9289 36.6635 71.0649C36.6635 71.1929 36.6595 71.3329 36.6515 71.4849C36.6435 71.6289 36.6355 71.7689 36.6275 71.9049C36.6195 72.0329 36.6115 72.1369 36.6035 72.2169L40.0475 66.8289H41.3435V73.2609H40.3595V69.4689C40.3595 69.3409 40.3595 69.1729 40.3595 68.9649C40.3675 68.7569 40.3755 68.5529 40.3835 68.3529C40.3915 68.1449 40.3995 67.9889 40.4075 67.8849L36.9875 73.2609H35.6795V66.8289H36.6755V70.7529ZM47.7105 67.7169H45.6105V73.2609H44.5665V67.7169H42.4905V66.8289H47.7105V67.7169Z" fill="black"/>
<rect x="9" y="83.2609" width="45" height="4" rx="2" fill="#4282E1" fill-opacity="0.15"/>
<rect x="9" y="83.2609" width="29.2105" height="4" rx="2" fill="#4282E1"/>
</svg>
